<?xml version="1.0" standalone="no"?>
<!DOCTYPE svg PUBLIC "-//W3C//DTD SVG 20010904//EN"
 "http://www.w3.org/TR/2001/REC-SVG-20010904/DTD/svg10.dtd">
<svg version="1.0" xmlns="http://www.w3.org/2000/svg"
 width="2.4rem" height="2.4rem" viewBox="0 0 241.000000 222.000000"
 preserveAspectRatio="xMidYMid meet">

<g transform="translate(0.000000,222.000000) scale(0.100000,-0.100000)"
fill="#d50000" stroke="none">
<path d="M265 2116 c-4 -24 -4 -57 -1 -73 3 -15 2 -41 -2 -58 l-9 -30 -94 0
-94 0 0 -415 0 -415 100 -5 100 -5 3 -97 3 -98 99 0 c72 0 101 -3 102 -12 1
-7 2 -53 3 -103 l0 -90 100 -5 100 -5 5 -100 5 -100 100 -5 100 -5 5 -95 5
-95 89 -3 c50 -2 96 -8 103 -13 8 -7 13 -44 15 -102 l3 -92 88 -3 c56 -2 94 1
103 9 9 7 14 40 16 102 l3 92 100 5 100 5 0 95 0 95 100 5 100 5 3 102 3 102
102 3 102 3 3 102 3 102 102 3 102 3 0 95 0 95 103 3 102 3 -2 417 -3 417 -95
3 c-60 2 -97 7 -103 15 -4 7 -7 44 -6 82 1 39 1 78 0 88 -1 16 -23 17 -311 17
l-310 0 0 -93 c0 -52 -5 -98 -11 -104 -6 -6 -45 -8 -104 -5 l-94 5 -3 -104 -3
-104 -95 0 -95 0 -5 100 -5 100 -90 0 c-49 0 -96 4 -103 8 -9 6 -13 33 -12 90
1 45 1 88 1 95 -1 9 -70 12 -310 12 l-310 0 -6 -44z m423 -268 l-3 -103 -102
-3 -103 -3 0 -204 0 -205 -105 0 -105 0 0 210 0 210 100 0 100 0 0 100 0 100
110 0 111 0 -3 -102z"/>
</g>
</svg>
